<?xml version="1.0" encoding="utf-8"?>
<!DOCTYPE svg PUBLIC "-//W3C//DTD SVG 1.0//EN" "http://www.w3.org/TR/2001/REC-SVG-20010904/DTD/svg10.dtd">
<svg version="1.0" xmlns="http://www.w3.org/2000/svg" width="1024px" height="1024px" viewBox="0 0 1024 1024" preserveAspectRatio="xMidYMid meet">
 <g fill="#1c6036">
  <path d="M164.75 643 c-10 -1.50 -19.85 -6.55 -26.65 -13.70 -5.90 -6.20 -9.55 -13.75 -11.30 -23.30 -0.80 -4.45 -1.55 -9.70 -5.85 -42.25 -0.55 -4.10 -1.20 -8.95 -1.45 -10.75 -0.25 -1.80 -0.95 -6.75 -1.50 -11 -0.55 -4.25 -1.25 -9.10 -1.50 -10.75 -0.25 -1.65 -0.95 -6.70 -1.50 -11.25 -0.60 -4.55 -1.50 -11.40 -2 -15.25 -2.20 -15.95 -3.95 -29.15 -4.25 -31.75 -0.45 -3.50 -1.30 -4.80 -3.35 -5.25 -2.65 -0.55 -6.35 -2.80 -7.95 -4.80 -3.60 -4.60 -8.45 -18.55 -8.45 -24.40 0 -3.45 0.85 -5.80 2.85 -7.65 3.10 -3 2 -2.90 38.80 -2.90 31.45 0 33.75 -0.05 34.45 -0.85 0.40 -0.50 1.60 -3.60 2.65 -6.90 4.05 -12.85 8.45 -25.65 10 -29 3.80 -8.40 10.80 -16.50 18.40 -21.45 11.10 -7.25 18.70 -8.80 42.80 -8.80 14.25 0.05 22.85 0.65 28.55 2.05 14.60 3.60 27.85 14.60 34.10 28.35 0.85 1.85 3.75 10.10 6.50 18.35 2.75 8.25 5.30 15.70 5.75 16.60 l0.75 1.60 34.80 0.15 c31.30 0.15 35 0.25 36.35 1 3.25 1.75 5.25 5.20 5.25 9.05 0 3.80 -4.05 16.80 -6.85 21.90 -1.90 3.50 -5.45 6.60 -8.85 7.65 -1.50 0.50 -3 1.20 -3.30 1.55 -0.50 0.65 -1.85 9.25 -5 32.50 -0.60 4.15 -1.40 9.85 -1.80 12.75 -0.40 2.90 -0.95 6.85 -1.20 8.75 -0.65 4.80 -4.25 31.35 -5.50 40.50 -0.55 4.15 -1.25 9.10 -1.50 11 -0.25 1.95 -0.95 6.90 -1.50 11 -0.55 4.15 -1.25 9.20 -1.50 11.25 -1.85 14.05 -3.70 20.15 -8.25 27 -6.60 9.95 -18.55 17.15 -31.45 18.95 -4.45 0.65 -145.40 0.65 -149.55 0.05z m75.25 -21.25 c0 -2.30 2.20 -6.70 3.60 -7.20 0.60 -0.20 1.70 -0.15 2.45 0.10 1 0.40 1.55 0.35 2.15 -0.10 1.10 -0.90 1 -3.20 -0.15 -3.90 -0.85 -0.50 -0.90 -0.85 -0.45 -3 0.30 -1.30 1.10 -3.25 1.80 -4.30 1.15 -1.75 1.20 -1.95 0.45 -2.70 -0.60 -0.60 -1.80 -0.85 -4.80 -0.85 -3.20 -0.05 -4.15 -0.25 -5.05 -1.05 -0.60 -0.55 -1.65 -0.90 -2.50 -0.85 -1.15 0.10 -1.75 -0.25 -2.80 -1.65 -0.70 -0.95 -1.70 -1.75 -2.10 -1.75 -0.95 0 -4.60 -3.80 -4.60 -4.80 0 -0.40 0.30 -1.15 0.60 -1.70 0.50 -0.75 0.50 -1.10 0 -1.60 -0.90 -0.90 -0.75 -2.65 0.35 -3.60 0.95 -0.85 1.05 -0.85 2.80 0.45 0.95 0.75 2.50 1.55 3.40 1.70 1.55 0.35 1.60 0.45 1.65 2.95 0.05 2.90 0.65 3.60 3.70 4.55 3.25 1 10.15 2.55 11.30 2.55 0.60 0 1.75 0.60 2.45 1.40 1.15 1.15 1.35 1.85 1.50 4.75 0.15 3.95 0.75 4.80 4.45 6.70 1.30 0.65 2.55 1.65 2.65 2.20 0.25 0.80 0.75 0.95 3.45 0.95 3.50 0 4.30 0.80 1.30 1.30 -1.75 0.30 -1.90 0.40 -1.70 1.60 0.30 1.45 2.15 3.55 4 4.55 0.65 0.35 1.10 1.05 1.10 1.80 0 2.45 2.75 1.05 3.50 -1.75 0.40 -1.50 0.40 -2.20 -0.10 -2.95 -0.55 -0.90 -0.45 -1.20 0.80 -2.50 1.05 -1.10 1.30 -1.75 1.05 -2.55 -0.30 -0.90 -0.60 -1 -1.65 -0.75 -1.55 0.40 -1.60 0.40 -2.70 0.30 -0.70 -0.05 -0.90 -0.50 -0.90 -2.20 0 -1.20 -0.25 -2.40 -0.55 -2.70 -0.75 -0.75 -0.35 -3.20 0.55 -3.65 0.40 -0.20 1.25 -0.60 1.85 -0.90 0.65 -0.35 1.75 -0.60 2.50 -0.60 0.80 0 1.85 -0.35 2.35 -0.75 1.40 -1.05 2.40 -0.95 5.10 0.50 l2.35 1.25 2 -1.15 c2.15 -1.20 3.25 -2.60 4.20 -5.35 0.85 -2.30 0.80 -2.65 -0.15 -2.30 -1.30 0.50 -2.70 -0.60 -2.70 -2.10 0 -0.75 0 -2.55 0 -4.05 0 -1.45 0.25 -3.05 0.50 -3.55 0.30 -0.60 0.30 -1.45 -0.05 -2.45 -0.50 -1.45 -0.45 -1.70 1.55 -3.60 1.75 -1.70 2 -2.25 1.75 -3.45 -0.15 -0.80 -0.10 -1.55 0.20 -1.75 0.30 -0.15 0.55 -1.15 0.55 -2.20 0 -2.20 1 -3.45 3.90 -4.75 l2.05 -0.95 3.25 1.60 c3.85 1.85 4.95 2.80 4.55 4.10 -0.40 1.20 0.85 1.30 1.95 0.20 0.45 -0.45 1.80 -1.25 3.05 -1.80 2.75 -1.20 2.90 -1.95 0.35 -1.95 -3.70 0 -4.50 -2.10 -1.90 -5.05 1.45 -1.65 4.80 -3.95 5.85 -3.95 0.40 0 1.05 -0.50 1.35 -1.10 1.55 -2.95 4.70 -13.40 6.10 -20.15 1.90 -9.20 2.50 -11.15 4.45 -15.65 3.30 -7.55 1.05 -14.20 -6.95 -20.65 -5.40 -4.35 -10.45 -6.80 -27.50 -13.45 -13.10 -5.05 -15.30 -6.35 -21.40 -12.25 -5.20 -4.95 -7.10 -7.65 -7.10 -9.90 0 -2.15 0.95 -2.40 4.55 -1.35 1.95 0.60 3.80 0.90 4.65 0.70 1.95 -0.40 7.80 -3.15 7.80 -3.65 0 -0.20 -0.75 -1.05 -1.60 -1.90 -0.90 -0.80 -2.15 -2.10 -2.75 -2.85 -0.60 -0.70 -1.60 -1.30 -2.20 -1.30 -0.65 0 -1.65 -0.50 -2.30 -1.10 -0.75 -0.70 -1.70 -1.05 -2.60 -1 -0.85 0.05 -1.75 -0.25 -2.30 -0.90 -0.85 -0.95 -1.55 -1 -9.75 -1 l-8.80 0 -2.90 1.75 c-7.40 4.45 -12.85 9.90 -15.65 15.65 -3 6.25 -9.25 16.05 -12 19 -0.35 0.35 -2.60 1.65 -5 2.90 -2.45 1.25 -4.75 2.65 -5.20 3.10 -2.45 2.60 -3.35 12.90 -1.45 16.60 2.30 4.55 5.40 4.50 10.60 -0.10 1.85 -1.65 3.55 -2.85 3.80 -2.70 0.25 0.15 0.60 2.10 0.75 4.30 0.25 2.90 0.60 4.45 1.35 5.50 0.55 0.80 1.25 2.75 1.50 4.35 0.60 3.25 2.30 7.60 3.45 8.55 1.30 1.05 3 0.65 5.05 -1.25 2.90 -2.55 3.20 -3.35 3.05 -7.90 -0.10 -3.90 -0.05 -4.05 1.45 -5.50 0.90 -0.90 1.50 -1.95 1.50 -2.75 0 -0.70 0.35 -1.75 0.75 -2.30 1.35 -1.75 0.90 -3.15 -2 -6.20 -2.90 -3 -3.90 -5.05 -3.20 -6.75 0.20 -0.55 0.40 -1.60 0.40 -2.30 0.05 -1.60 2.90 -4.95 5.80 -6.80 2.45 -1.55 2.65 -2.20 1.45 -4.65 -0.80 -1.50 -0.75 -1.70 0.30 -3.80 1.05 -2.15 1.15 -2.20 2.80 -1.90 1.10 0.20 2 0.10 2.45 -0.30 0.60 -0.50 0.95 -0.50 1.65 0.10 0.45 0.40 1.45 0.95 2.25 1.30 1.85 0.80 1.75 2.35 -0.45 6.10 -2.70 4.60 -4.20 8.30 -4.20 10.35 0 2.30 1.85 8.65 2.90 9.80 1.75 1.95 6.60 0.60 12.30 -3.45 4.10 -2.95 4.70 -3.20 7.05 -3.20 2.60 0 3.75 0.60 3.75 1.95 0 1.45 -1.70 2.50 -5.90 3.60 -4.55 1.20 -8.45 3.50 -9.15 5.30 -0.35 0.95 -0.10 1.25 1.70 2.25 4.65 2.60 2.80 6.60 -4 8.65 -1.30 0.45 -2.85 1.10 -3.40 1.50 -0.95 0.75 -0.95 0.85 -0.15 3.05 0.75 2.05 0.75 2.50 0.05 4.45 -0.40 1.30 -1.55 2.95 -2.70 4 -1.90 1.70 -2.10 1.75 -5.85 1.75 -2.30 0 -4.15 -0.25 -4.50 -0.60 -0.70 -0.70 -1.90 0.15 -2.35 1.65 -0.20 0.55 -1.40 1.55 -2.75 2.20 -2.65 1.35 -4 1.60 -4 0.75 0 -0.30 -0.60 -1.10 -1.30 -1.75 -1.45 -1.35 -3.15 -1.60 -4.05 -0.70 -0.35 0.35 -2 0.55 -3.95 0.50 -3.50 -0.05 -5.20 -0.75 -4.20 -1.75 0.75 -0.75 0.60 -2.15 -0.20 -2.45 -1.35 -0.50 0.70 -4.75 2.85 -6 1.05 -0.60 1.85 -1.20 1.85 -1.40 0 -0.65 -2.60 -2.45 -3.55 -2.45 -1.15 0 -3.15 2.65 -3.95 5.25 -0.35 1.10 -1.05 2.75 -1.60 3.65 l-1 1.65 1 1.10 c1.10 1.20 1.80 3.80 1.20 4.60 -0.35 0.55 -5.15 2.35 -9.30 3.50 -1.30 0.40 -2.50 0.75 -2.60 0.90 -0.10 0.10 0.10 0.85 0.40 1.75 0.50 1.30 0.45 1.70 -0.25 2.50 -0.50 0.55 -1.85 1.15 -3 1.30 -3.55 0.60 -5.95 2 -10 6 -2.85 2.80 -4.25 3.80 -5.20 3.80 -0.75 0 -1.85 0.50 -2.50 1.10 -1.05 1 -1.60 1.05 -7.75 1 -3.65 -0.05 -7.50 -0.20 -8.50 -0.35 -1.60 -0.30 -1.90 -0.20 -1.90 0.50 0 2.35 2.95 5.30 7.10 7.10 2 0.90 2.50 1.45 3.80 4.25 2.95 6.30 3.20 10.50 0.80 13.35 -2.45 2.90 -5.50 3 -13.95 0.50 -7.35 -2.15 -9.10 -2.55 -12 -2.60 l-3 -0.10 -0.35 3.25 c-0.95 9.45 -1.50 12.40 -2.75 14.95 -1.15 2.40 -1.25 2.90 -0.70 4.35 0.35 0.90 0.65 3.25 0.65 5.20 0.10 3.35 0.15 3.50 1.25 3.50 1.50 0 4.15 1.35 4.20 2.15 0.05 0.30 0.05 0.95 0 1.40 -0.05 0.55 0.45 0.90 1.40 1.10 0.85 0.20 2 0.80 2.60 1.40 0.95 0.95 1.30 1.05 2.70 0.50 2.20 -0.75 5.70 -0.70 8.30 0.20 2.05 0.75 2.25 0.70 3.55 -0.25 0.95 -0.70 2.15 -1 3.85 -1 3.20 0 4.05 -1.05 4.05 -5.15 0 -3.75 1.80 -6.85 4.65 -8.15 1.05 -0.50 2.60 -1.70 3.40 -2.65 1.30 -1.60 1.70 -1.80 3.70 -1.70 2.55 0.10 3.50 -0.75 3.05 -2.65 -0.40 -1.60 0.70 -3.45 2.30 -4 0.65 -0.20 1.95 -1 2.90 -1.75 2.15 -1.80 2.85 -1.80 5.30 -0.15 1.50 1 2.10 1.20 2.70 0.75 0.40 -0.30 1.65 -1 2.75 -1.60 1.10 -0.60 2.75 -1.75 3.65 -2.50 1.65 -1.50 3.05 -1.75 6.05 -1.15 1.20 0.25 2.10 1.05 3.55 3.15 5.45 7.75 8.15 10.35 13.85 13.30 3.45 1.75 6.65 4.60 6.65 5.90 0 1.60 1 2.85 2.25 2.85 1.80 0 1.50 0.55 -1.15 2.25 -2.90 1.85 -5.25 2.95 -8.85 4.05 -3.55 1.15 -3.65 2.20 -0.25 2.20 2.10 0 2.40 0.15 2.15 0.80 -0.25 0.75 0 0.80 1.90 0.50 1.20 -0.15 2.55 -0.10 2.95 0.20 1.25 0.80 1.50 0.60 1.50 -1.25z m-26.30 -2.70 c0.45 -0.50 0.85 -1.80 0.90 -2.85 0 -1.05 0.45 -2.50 1 -3.15 1.30 -1.70 1.25 -5.55 -0.10 -5.90 -0.60 -0.15 -1 -0.70 -1 -1.25 0 -0.80 -0.25 -0.95 -1.10 -0.70 -0.65 0.15 -1.90 0.30 -2.75 0.30 -1.45 0 -1.65 0.15 -1.65 1.35 0 0.70 0.55 2.25 1.25 3.40 0.95 1.65 1.25 2.95 1.35 5.90 0.15 4 0.60 4.60 2.10 2.90z m66.50 -6.85 c1.30 -0.50 1 -2.20 -0.40 -2.20 -1.20 0 -2.80 1.15 -2.80 2.05 0 0.50 2 0.60 3.20 0.15z m-65.80 -10.80 c0.85 -0.85 0.75 -4.45 -0.15 -5.60 -0.65 -0.85 -0.95 -0.90 -2.75 -0.35 -2 0.60 -2.05 0.65 -1.70 2.45 0.55 3.15 3.05 5.05 4.60 3.50z m81 -8 c-0.15 -0.35 -0.65 -0.65 -1.15 -0.65 -0.50 0 -1 0.30 -1.10 0.65 -0.15 0.35 0.25 0.60 1.10 0.60 0.85 0 1.25 -0.25 1.15 -0.60z m-117.65 -41.35 c0.15 -0.55 1.20 -1.35 2.35 -1.80 1.95 -0.75 2.15 -0.75 3.35 0.15 2.20 1.60 3.25 1.75 3.80 0.50 0.45 -1 1.15 -1.35 4.25 -2.25 0.65 -0.20 0.65 -0.25 0 -0.70 -0.85 -0.50 -3.15 -0.20 -4.85 0.65 -2 1 -1.85 0 0.35 -2.55 1.90 -2.30 2 -2.60 1.30 -3.35 -1 -0.95 -1 -1.20 0 -2.60 0.70 -1.05 0.65 -1.20 -1.30 -3.05 l-2.05 -1.95 0.15 -3.65 c0.10 -3.30 0 -3.90 -1.25 -5.70 -0.75 -1.15 -1.70 -3.25 -2.15 -4.75 l-0.80 -2.70 1.35 -1.15 c0.70 -0.65 1.65 -1.15 2.05 -1.15 0.45 0 0.70 -0.35 0.60 -0.85 -0.15 -0.80 -0.70 -1.05 -5.35 -2.35 -3.10 -0.85 -3.60 -2.35 -1.25 -3.80 1.80 -1.15 2.10 -1.90 1.10 -2.90 -0.95 -0.95 -1.20 -0.75 -2.80 1.85 -1.10 1.75 -1.75 3.75 -2.30 7.10 -0.45 2.60 -0.95 5.35 -1.10 6.10 -0.30 1.25 -0.20 1.40 0.60 1.25 0.60 -0.10 1 -0.65 1.10 -1.55 0.20 -1.45 0.55 -1.70 1.50 -0.75 0.85 0.85 0.75 3.95 -0.20 6.20 -0.50 1.25 -0.70 2.55 -0.50 3.80 0.25 1.55 0 2.65 -1.35 5.55 -0.90 2 -2 3.95 -2.45 4.35 -0.40 0.45 -1 1.25 -1.30 1.85 -0.40 0.70 -1.20 1.15 -2.25 1.25 -1.35 0.15 -1.60 0.35 -1.60 1.50 0 0.70 -0.15 1.50 -0.35 1.70 -0.80 0.80 -0.35 1.85 1.65 3.75 2.35 2.25 2.75 2.35 4.30 0.85 l1.20 -1.10 1.60 1.60 c1.85 1.85 2.15 1.95 2.60 0.65z m-15.25 -15.20 c2.35 -1.15 2.35 -1.10 1.95 -4.80 -0.20 -1.65 -0.10 -1.75 1.70 -2.20 1.70 -0.40 1.85 -0.60 1.85 -2.10 0 -0.95 0.25 -1.85 0.50 -2 0.75 -0.45 0.60 -1.75 -0.20 -1.75 -0.35 0 -1.30 -0.35 -2.10 -0.75 -1.35 -0.70 -1.60 -0.60 -4.95 1.20 -3.05 1.65 -3.50 2.05 -3.40 3.20 0.05 1.10 -0.10 1.35 -1.10 1.35 -1.05 0 -1.15 0.15 -0.90 1.70 0.20 1.45 0 2.05 -1.30 3.65 -1.85 2.25 -1.90 2.55 -0.40 3.15 2.05 0.80 6 0.50 8.35 -0.65z m0.75 -52.80 c2.30 -1.05 5.20 -3.70 6.20 -5.70 0.65 -1.25 0.65 -1.50 -0.25 -2.75 -0.55 -0.75 -1.15 -1.75 -1.35 -2.20 -0.40 -1.10 -2.60 -1.15 -4.35 -0.15 -1.65 0.95 -4.20 0.95 -5 0 -0.55 -0.65 -0.55 -1 0 -2 0.35 -0.70 0.55 -1.40 0.35 -1.55 -0.30 -0.30 -5.40 1 -6.85 1.75 -1.25 0.70 -0.85 1.65 1.25 2.85 1.10 0.60 2 1.40 2 1.75 0 0.30 -0.85 1.05 -1.85 1.60 -1.05 0.50 -1.90 1.10 -1.90 1.30 0 0.20 0.70 0.85 1.50 1.45 0.85 0.65 1.50 1.55 1.50 2.10 0 2.40 4.95 3.30 8.75 1.55z m127.75 -56.30 c0 -1 -8.45 -25.30 -9.80 -28.15 -3.25 -6.75 -9.10 -11.85 -16.95 -14.60 l-3.50 -1.25 -21 0 c-22.50 0 -23.30 0.10 -28.50 2.65 -5.70 2.80 -10.05 7.20 -12.90 12.90 -1.15 2.30 -9.85 27.25 -9.85 28.30 0 0.20 23.05 0.40 51.25 0.40 28.20 0 51.25 -0.10 51.25 -0.25z"/>
  <path d="M590.60 590.25 l-1.70 -1.75 1.80 0 c1.70 0 1.80 0.10 1.80 1.75 0 0.95 -0.05 1.75 -0.10 1.75 -0.10 -0.05 -0.90 -0.80 -1.80 -1.75z"/>
  <path d="M482 504.50 c0 -0.85 0.35 -1 2 -1 2.25 0 2.85 1.15 0.90 1.70 -2.10 0.55 -2.90 0.35 -2.90 -0.70z"/>
  <path d="M440.60 490.25 l-1.70 -1.75 1.80 0 c1.70 0 1.80 0.10 1.80 1.75 0 0.95 -0.05 1.75 -0.10 1.75 -0.10 -0.05 -0.90 -0.80 -1.80 -1.75z"/>
 </g>
 <g fill="#0d0d0b">
  <path d="M325.45 639.20 c1.50 -0.65 2.80 -1.15 2.90 -1 0.20 0.20 -4.60 2.30 -5.20 2.25 -0.20 0 0.80 -0.55 2.30 -1.25z"/>
  <path d="M149.50 637.75 c-1.80 -0.95 -3.90 -2.35 -4.75 -3.05 l-1.50 -1.30 1.75 1.20 c0.95 0.65 3.30 2 5.25 3 1.90 1.05 3.30 1.85 3 1.85 -0.25 0 -1.95 -0.75 -3.75 -1.70z"/>
  <path d="M330.25 637.15 c1 -0.95 4.40 -2.85 4.05 -2.25 -0.20 0.35 -1.30 1.10 -2.45 1.65 -1.15 0.60 -1.85 0.85 -1.60 0.60z"/>
  <path d="M335 634.35 c0 -0.15 0.85 -0.85 1.90 -1.65 1.50 -1.15 1.65 -1.20 0.85 -0.25 -0.95 1.10 -2.75 2.30 -2.75 1.90z"/>
  <path d="M140.75 631.60 c-1.10 -1 -2.45 -2.40 -3 -3.10 -0.55 -0.70 0.45 0.10 2.15 1.75 2.80 2.70 3.35 3.30 3 3.25 -0.10 -0.05 -1.05 -0.90 -2.15 -1.90z"/>
  <path d="M561.60 631 c-4.20 -0.90 -7.20 -3.50 -9.35 -8.15 -1.40 -2.95 -2.25 -3.95 -2.25 -2.70 0 1.15 -6.25 6.70 -9.15 8.15 -3.80 1.95 -7.40 2.65 -13.70 2.70 -6.05 0 -9.50 -0.65 -14.05 -2.75 -3 -1.40 -7.45 -5.50 -8.80 -8.20 -3.50 -6.80 -2.95 -15.15 1.45 -21.75 5.20 -7.85 19.35 -13 39.70 -14.55 l4.65 -0.35 -0.20 -2.85 c-0.40 -5.05 -2.70 -8.30 -7.30 -10.40 -3.35 -1.45 -8.60 -1.65 -12.70 -0.45 -3.05 0.90 -7.45 4 -8.45 5.90 -0.35 0.65 -0.75 1.25 -0.90 1.40 -0.15 0.15 -0.60 0.85 -1 1.65 -0.75 1.45 -1.60 1.65 -4.50 0.90 -1 -0.25 -3.50 -0.75 -5.55 -1.05 -5.60 -0.90 -6 -1.10 -5.50 -3.10 1 -4.05 1.65 -5.50 3.55 -8.35 3.80 -5.70 9.20 -9.45 17.45 -12.10 3.30 -1.05 4.65 -1.20 11.75 -1.20 8.90 0 10.90 0.40 16.60 3.15 6.65 3.20 11.05 8.15 13.50 15.20 1.25 3.55 1.25 4.05 1.60 22.50 0.35 21.30 0.10 20.20 4.35 20.80 1.95 0.30 2.45 0.55 2.50 1.35 0.05 0.55 0.25 3.70 0.45 7 l0.35 6 -1.80 0.65 c-2.30 0.85 -9.90 1.20 -12.70 0.60z m-25.35 -14.80 c5.25 -0.90 10.45 -4.80 12.60 -9.50 1 -2.25 1.15 -3.25 1.05 -6.80 l-0.15 -4.15 -3.50 0.15 c-5.20 0.25 -14.10 2.05 -17.50 3.60 -1.65 0.75 -3.75 2.10 -4.65 3 -2.90 3.05 -3.25 7.55 -0.75 10.55 1.55 1.80 2.65 2.45 5.90 3.25 2.45 0.60 2.95 0.60 7 -0.10z"/>
  <path d="M607.25 631.20 c-9.10 -1.25 -15.85 -4.80 -21 -11.05 -2.90 -3.50 -5.55 -8.55 -4.90 -9.20 0.25 -0.25 1.65 -0.85 3.15 -1.40 1.50 -0.50 5.05 -1.85 7.90 -2.95 l5.10 -2.05 1.35 2.60 c1.90 3.80 3.45 5.65 5.95 7.10 4.60 2.70 8.60 3.30 13.85 2 7.10 -1.65 10.70 -6.95 7.90 -11.55 -1.55 -2.60 -4.85 -3.80 -14.80 -5.45 -9.80 -1.60 -16.45 -4.45 -20.75 -8.75 -4.35 -4.45 -5.20 -6.55 -5.20 -13.25 -0.05 -4.20 0.15 -6.05 0.85 -7.75 2.85 -7.05 8.25 -11.60 17.15 -14.60 2.95 -1 4.45 -1.15 10.70 -1.15 8.15 0 11 0.50 16.25 3 2.40 1.15 4.50 2.70 6.70 4.95 4.40 4.35 6.90 9.30 4.80 9.30 -0.40 0 -1.15 0.25 -1.65 0.50 -0.45 0.30 -3.10 1.45 -5.85 2.55 -2.75 1.10 -5.25 2.15 -5.55 2.25 -0.30 0.15 -1.20 -0.80 -2 -2.05 -2.80 -4.45 -6.50 -6.25 -12.75 -6.25 -5 0 -8.75 1.50 -10.35 4.10 -3.10 5 1 9.75 9.80 11.35 5.50 1 11.75 2.45 13.85 3.20 7.10 2.50 11.90 6.40 14.40 11.75 1.40 2.95 1.60 3.95 1.75 8.40 0.20 5.70 -0.45 8.35 -3 12.35 -3.10 4.80 -8.15 8.35 -15.25 10.60 -3.10 1.05 -5.20 1.30 -10.40 1.50 -3.55 0.10 -7.15 0.10 -8 -0.05z"/>
  <path d="M739.50 631.20 c-7 -1.20 -11.35 -2.95 -16.25 -6.40 -15.40 -11.05 -19.65 -34.90 -9.40 -53.25 1.20 -2.15 3 -4.65 5.40 -7.45 1.65 -1.95 6.70 -5.55 9.95 -7.10 5.45 -2.65 8.30 -3.20 16.55 -3.20 6.50 -0.05 7.95 0.10 10.95 1.10 9.25 3.10 15.25 8 19.70 16.20 3.25 6 4.60 11.95 4.60 20.30 l0 5.60 -26.75 0 c-30.40 0 -27.35 -0.55 -26 4.65 1.75 6.65 5.50 11.40 10.55 13.35 4.40 1.70 11.40 1.65 15.30 -0.15 3.35 -1.50 6.80 -4.55 9 -7.90 0.95 -1.50 1.75 -2.30 2.15 -2.05 3.20 1.95 13.75 9.20 13.75 9.40 0 0.40 -2.95 4.10 -4.75 6 -3.50 3.65 -10.25 7.80 -14.75 9.15 -1.25 0.35 -2.90 0.90 -3.75 1.15 -1.60 0.50 -14.20 1 -16.25 0.60z m23.50 -47.40 c0 -1.75 -1.65 -5.65 -3.60 -8.65 -5.35 -8.05 -19.35 -8.80 -26.55 -1.45 -1.90 1.95 -4.35 6.50 -5.05 9.45 l-0.30 1.35 17.75 0 c14.55 0 17.75 -0.10 17.75 -0.70z"/>
  <path d="M683.05 630.45 c-11.65 -1.25 -19 -7.05 -21.35 -16.85 -0.50 -2.15 -0.65 -7.85 -0.70 -23.25 l0 -20.45 -5.10 0.10 c-2.85 0.05 -5.45 0.05 -5.80 0.05 -0.50 -0.05 -0.60 -1.70 -0.50 -7.40 l0.15 -7.40 5.65 -0.15 5.60 -0.15 0 -10.75 0 -10.70 9.30 0.10 9.30 0.15 -0.10 10.65 -0.05 10.60 10.45 0 c5.75 0 10.55 0.10 10.65 0.20 0.10 0.10 0.10 3.50 -0.05 7.55 l-0.25 7.30 -10.25 0.10 -10.25 0.10 0.15 19 c0.15 18.40 0.20 19.05 1.25 21.25 1.55 3.15 4.30 4.50 9.20 4.50 3.15 0 7.20 -0.70 9.75 -1.75 0.90 -0.35 1.25 1.05 2.35 8.50 0.30 1.95 0.65 4.30 0.80 5.25 l0.25 1.80 -2.85 0.60 c-2.70 0.60 -11.80 1.65 -12.90 1.50 -0.25 0 -2.40 -0.25 -4.70 -0.45z"/>
  <path d="M458 586.75 l0 -43.25 -16 0 -16 0 0 -8.75 0 -8.75 42 0 42 0 0 8.75 0 8.75 -16 0 -16 0 0 43.25 0 43.25 -10 0 -10 0 0 -43.25z"/>
  <path d="M342.50 627.85 c0 -0.35 3.25 -5.15 4.15 -6.10 0.85 -0.90 -0.55 1.45 -2.35 4 -1 1.35 -1.80 2.35 -1.80 2.10z"/>
  <path d="M134.90 625.15 c-0.90 -1.10 -3.25 -5.10 -2.55 -4.40 0.60 0.60 3.65 5.25 3.45 5.25 -0.05 0 -0.50 -0.40 -0.90 -0.85z"/>
  <path d="M211.10 618.50 c0 -0.95 0.10 -1.35 0.25 -0.85 0.10 0.45 0.10 1.25 0 1.75 -0.15 0.45 -0.25 0.05 -0.25 -0.90z"/>
  <path d="M275.10 617.50 c0 -0.95 0.10 -1.35 0.25 -0.85 0.10 0.45 0.10 1.25 0 1.75 -0.15 0.45 -0.25 0.05 -0.25 -0.90z"/>
  <path d="M174 618.20 c0 -0.25 0.35 -0.90 0.75 -1.40 0.60 -0.80 0.75 -0.85 0.75 -0.20 0 0.40 -0.35 1.05 -0.75 1.40 -0.40 0.35 -0.75 0.45 -0.75 0.20z"/>
  <path d="M129.30 614.65 c-0.45 -1.30 -0.60 -2.15 -0.35 -1.90 0.55 0.65 1.60 3.85 1.35 4.10 -0.10 0.10 -0.55 -0.85 -1 -2.20z"/>
  <path d="M237.75 616.20 c0.55 -0.45 1.45 -1 2 -1.30 0.95 -0.55 1 -0.50 0.10 0.50 -0.50 0.55 -1.40 1.10 -2 1.30 -1.10 0.25 -1.10 0.25 -0.10 -0.50z"/>
  <path d="M148.05 615.95 c-0.05 -0.70 -1.15 -1.50 -3.05 -2.10 -0.50 -0.20 -0.35 -0.30 0.30 -0.30 1.40 -0.05 3.40 1.60 3.05 2.50 -0.20 0.55 -0.30 0.55 -0.30 -0.10z"/>
  <path d="M243.10 615.30 c0.70 -0.80 1.10 -0.85 3.25 -0.40 l2.40 0.55 -2.40 -0.25 c-1.55 -0.20 -2.70 -0.05 -3.25 0.35 -0.80 0.60 -0.80 0.60 0 -0.25z"/>
  <path d="M274.40 615.20 c-0.20 -0.25 0.20 -1.15 0.85 -2 0.65 -0.80 1.20 -1.15 1.25 -0.80 0 0.30 -0.20 0.60 -0.40 0.60 -0.25 0 -0.65 0.60 -0.90 1.40 -0.25 0.75 -0.65 1.10 -0.80 0.80z"/>
  <path d="M349.60 615.25 c0 -0.25 0.30 -1.30 0.65 -2.25 0.35 -0.95 0.70 -1.40 0.70 -1 0 0.40 -0.30 1.45 -0.70 2.25 -0.35 0.85 -0.65 1.30 -0.65 1z"/>
  <path d="M175.10 611.95 c-0.10 -2.30 2.10 -5.25 5.05 -6.75 1.15 -0.60 2.60 -1.80 3.25 -2.65 0.60 -0.85 1.35 -1.55 1.65 -1.55 0.90 0 -2.70 3.55 -4.60 4.50 -2.40 1.25 -4.80 4.35 -5.10 6.50 l-0.20 1.75 -0.05 -1.80z"/>
  <path d="M210.10 611.60 c-1.20 -2.40 -1.25 -2.90 -0.15 -1.15 0.60 0.90 1.05 1.85 0.95 2.10 -0.10 0.20 -0.45 -0.20 -0.80 -0.95z"/>
  <path d="M216.60 612 c0 -0.40 0.20 -1.30 0.40 -2 0.30 -1 0.40 -1.05 0.40 -0.25 0 0.55 -0.15 1.45 -0.40 2 -0.25 0.60 -0.40 0.70 -0.40 0.25z"/>
  <path d="M263.50 611.50 c-0.50 -0.35 0.35 -0.50 2.90 -0.50 2.05 0 3.60 0.20 3.60 0.50 0 0.65 -5.50 0.65 -6.50 0z"/>
  <path d="M276.30 610.70 c-0.40 -1.10 -0.15 -1.30 1.20 -1.10 1.10 0.15 1.10 0.15 0.10 1.05 -0.90 0.85 -1 0.85 -1.30 0.05z"/>
  <path d="M247.70 608.40 c0.25 -2.55 0.75 -3.90 1.35 -3.90 0.30 0 0.25 0.40 -0.05 0.95 -0.25 0.55 -0.50 1.75 -0.50 2.75 0 0.95 -0.20 1.90 -0.50 2.05 -0.30 0.20 -0.40 -0.50 -0.30 -1.85z"/>
  <path d="M271 607.65 c0 -3.10 0.80 -2.55 0.95 0.65 0.05 1.10 0.25 1.30 1.30 1.10 0.65 -0.15 1.10 -0.05 0.95 0.15 -0.15 0.25 -0.90 0.45 -1.75 0.45 -1.40 0 -1.45 -0.10 -1.45 -2.35z"/>
  <path d="M257.45 607.05 c-0.65 -0.55 -1.05 -1.10 -0.90 -1.25 0.15 -0.15 0.80 0.25 1.45 0.95 1.40 1.50 1.10 1.65 -0.55 0.30z"/>
  <path d="M126.80 604.95 c-0.40 -2.10 0 -2.50 0.45 -0.45 0.20 0.85 0.25 1.70 0.10 1.80 -0.10 0.15 -0.35 -0.50 -0.55 -1.35z"/>
  <path d="M254.90 602.70 c-0.25 -0.20 -0.40 -0.80 -0.40 -1.40 0 -0.70 0.15 -0.85 0.55 -0.45 0.30 0.30 0.45 0.95 0.35 1.40 -0.05 0.45 -0.30 0.65 -0.50 0.45z"/>
  <path d="M141.50 601.75 c0 -0.25 0.50 -1.05 1.05 -1.75 0.65 -0.85 0.85 -0.90 0.50 -0.25 -0.85 1.65 -1.55 2.55 -1.55 2z"/>
  <path d="M215.10 598.75 c-0.05 -1.40 -0.30 -2.80 -0.60 -3.15 -0.25 -0.35 -0.15 -0.30 0.30 0.05 0.55 0.50 0.70 1.35 0.55 3.15 l-0.15 2.45 -0.10 -2.50z"/>
  <path d="M224.75 599.15 l-0.85 -1.40 1.15 1.10 c0.60 0.60 1 1.25 0.85 1.40 -0.15 0.15 -0.65 -0.35 -1.15 -1.10z"/>
  <path d="M289.25 598.60 c1.05 -1.15 2.05 -2.10 2.10 -2.10 0.60 0 -1.15 2.10 -2.45 3.05 -1.60 1.05 -1.55 1.05 0.35 -0.95z"/>
  <path d="M189.70 597.45 c-0.15 -0.30 0 -0.90 0.45 -1.30 0.65 -0.65 0.70 -0.60 0.50 0.55 -0.30 1.45 -0.45 1.55 -0.95 0.75z"/>
  <path d="M235 596.25 c-0.65 -0.70 -0.95 -1.25 -0.70 -1.25 0.25 0 0.75 0.45 1.05 0.95 0.35 0.55 1.15 1.05 1.75 1.20 1.05 0.20 1.05 0.20 0.10 0.30 -0.55 0 -1.55 -0.50 -2.20 -1.20z"/>
  <path d="M252.50 596.35 c-2 -0.95 -2.10 -1.10 -1.05 -1.25 0.80 -0.15 1.65 0.25 2.50 1.10 1.50 1.55 1.45 1.55 -1.45 0.15z"/>
  <path d="M291.50 594.55 c0 -0.30 0.25 -0.65 0.50 -0.80 1.05 -0.65 0.50 -1.75 -0.95 -1.75 -0.80 0 -1.75 -0.40 -2.10 -0.85 -0.55 -0.75 -0.55 -0.80 0.05 -0.25 0.40 0.30 1.40 0.60 2.25 0.60 2.10 0 2.35 0.35 1.45 2.05 -0.75 1.45 -1.20 1.85 -1.20 1z"/>
  <path d="M230.25 592.40 c-1.20 -1.90 -1.20 -2 -0.20 -0.90 0.65 0.70 1.60 1.65 2.15 2.15 0.70 0.65 0.75 0.85 0.15 0.85 -0.40 0 -1.35 -0.95 -2.10 -2.10z"/>
  <path d="M195.20 592.75 c1.20 -1.10 1.80 -1.30 3.20 -1.05 1 0.15 2 0.55 2.30 0.85 0.40 0.45 0.30 0.50 -0.45 0.20 -2.35 -0.90 -3.35 -0.85 -4.90 0.20 l-1.60 1.10 1.45 -1.30z"/>
  <path d="M228.05 590.10 c-0.05 -1 0.90 -2.60 1.55 -2.60 0.35 0 0.25 0.35 -0.20 0.90 -0.45 0.45 -0.90 1.20 -1.05 1.60 -0.20 0.50 -0.30 0.55 -0.30 0.10z"/>
  <path d="M236.25 588.40 c0.20 -2.15 0.10 -2.40 -0.75 -2.40 -0.55 0 -1 -0.20 -1 -0.50 0 -0.25 0.45 -0.50 1 -0.50 1.25 0 1.65 1.65 1 4 -0.45 1.65 -0.45 1.60 -0.25 -0.60z"/>
  <path d="M170.75 585.45 c2.75 -0.45 5.20 -2.55 5.30 -4.60 0 -0.60 0.15 -0.80 0.30 -0.45 0.90 2.20 -2.90 5.65 -6.15 5.55 -1.90 -0.05 -1.90 -0.05 0.55 -0.50z"/>
  <path d="M162.50 584.45 c-1.50 -0.50 -2.05 -0.80 -1.25 -0.65 2.45 0.40 5.25 1.20 5.25 1.45 0 0.40 -1.15 0.20 -4 -0.80z"/>
  <path d="M231.30 584 c-1.10 -0.85 -1.80 -1.50 -1.60 -1.50 0.60 0 4.30 2.25 4.30 2.65 0 0.65 -0.70 0.35 -2.70 -1.15z"/>
  <path d="M288.50 584.40 c0 -0.15 0.35 -0.95 0.75 -1.70 0.40 -0.80 0.75 -1.10 0.75 -0.70 -0.05 0.40 -0.35 1.20 -0.75 1.70 -0.40 0.55 -0.75 0.85 -0.75 0.70z"/>
  <path d="M293.55 568.90 c-0.10 -2.15 0.45 -2.90 3 -4.20 2.30 -1.15 2.55 -1.20 3.95 -0.45 0.85 0.45 1.50 0.90 1.50 1.05 0 0.10 -0.65 -0.10 -1.40 -0.50 -1.25 -0.65 -1.60 -0.65 -3.60 0.25 -2.75 1.25 -2.60 1.05 -3 3.30 -0.30 1.50 -0.40 1.60 -0.45 0.55z"/>
  <path d="M170.50 567.20 c-1.25 -0.65 -2.05 -1.15 -1.85 -1.20 0.75 0 3.75 1.40 4.05 1.95 0.20 0.30 0.30 0.50 0.20 0.50 -0.10 -0.05 -1.15 -0.60 -2.40 -1.25z"/>
  <path d="M357.55 565.45 c0.05 -0.95 0.25 -2.25 0.45 -2.95 0.30 -0.80 0.35 -0.30 0.15 1.50 -0.35 3.15 -0.65 4 -0.60 1.45z"/>
  <path d="M309.45 564.50 l-1.20 -1 1.75 0.85 c2.20 1 2.35 1.15 1.40 1.15 -0.45 0 -1.30 -0.45 -1.95 -1z"/>
  <path d="M309 562.80 c0 -0.75 2.50 -3.80 3.10 -3.80 0.30 0 0.10 0.40 -0.45 0.90 -0.50 0.45 -1.35 1.40 -1.80 2.10 -0.45 0.65 -0.85 1 -0.85 0.80z"/>
  <path d="M165.85 558.15 c0.90 -0.10 2.50 -0.10 3.50 0 1.05 0.10 0.35 0.20 -1.60 0.20 -1.90 0 -2.75 -0.10 -1.90 -0.20z"/>
  <path d="M174.65 551.90 c-1.10 -1.05 -1.15 -1.05 -2.25 -0.15 l-1.15 0.95 1.15 -1.20 1.10 -1.20 1.35 1.35 c0.75 0.75 1.25 1.35 1.10 1.35 -0.10 0 -0.70 -0.50 -1.30 -1.10z"/>
  <path d="M359.60 551 c-0.05 -0.70 0.15 -2.15 0.35 -3.25 0.30 -1.30 0.45 -1.55 0.45 -0.75 0.05 0.70 -0.15 2.15 -0.35 3.25 -0.30 1.30 -0.45 1.55 -0.45 0.75z"/>
  <path d="M360.55 543.20 c0.05 -0.80 0.25 -2 0.45 -2.70 0.30 -0.85 0.35 -0.45 0.15 1.25 -0.30 2.80 -0.70 3.70 -0.60 1.45z"/>
  <path d="M186.65 536.90 c-0.85 -1.15 -1.25 -2.20 -0.45 -1.20 0.45 0.55 1.10 1.15 1.40 1.40 0.45 0.25 0.45 0.40 0.10 0.40 -0.30 0 -0.80 -0.30 -1.05 -0.60z"/>
  <path d="M237.05 533.80 c0.60 -1 1.15 -1.80 1.25 -1.80 0.35 0 -1.25 2.90 -1.80 3.25 -0.25 0.15 -0.05 -0.50 0.55 -1.45z"/>
  <path d="M217.75 534.35 c-0.70 -0.55 -0.75 -0.80 -0.25 -1.10 0.45 -0.25 0.75 -0.20 0.90 0.15 0.10 0.35 0.60 0.60 1.15 0.60 0.50 0 0.95 0.25 0.95 0.50 0 0.70 -1.65 0.60 -2.75 -0.15z"/>
  <path d="M164.60 532.65 c-0.30 -1 -0.50 -1.95 -0.35 -2.05 0.40 -0.40 3.75 -0.95 3.75 -0.60 0 0.20 -0.70 0.50 -1.50 0.70 -1.45 0.25 -1.55 0.40 -1.20 2.05 0.40 2.30 0 2.25 -0.70 -0.10z"/>
  <path d="M247.15 532.30 c2.35 -0.85 3.65 -2 4.90 -4.30 0.50 -0.95 0.90 -1.40 0.95 -0.95 0.05 2.05 -4.40 6 -6.75 5.95 -0.60 -0.05 -0.25 -0.30 0.90 -0.70z"/>
  <path d="M217.25 529.65 c0.20 -0.50 0.50 -1.40 0.60 -2 0.15 -0.60 0.65 -1.40 1.10 -1.75 0.70 -0.55 0.70 -0.55 0.20 0.10 -0.30 0.40 -0.70 1.60 -0.90 2.65 -0.20 1 -0.60 1.85 -0.85 1.85 -0.30 0 -0.35 -0.40 -0.15 -0.85z"/>
  <path d="M232.50 528.35 c0 -0.10 0.95 -0.95 2.15 -1.85 1.15 -0.95 1.80 -1.30 1.40 -0.85 -0.75 0.95 -3.55 3.05 -3.55 2.70z"/>
  <path d="M168.25 526.90 c0.20 -0.65 0.65 -1.45 1.05 -1.85 0.55 -0.60 0.55 -0.45 0.10 1.10 -0.30 1 -0.75 1.85 -1 1.85 -0.25 0 -0.30 -0.50 -0.15 -1.10z"/>
  <path d="M363.10 525.50 c-0.05 -2.05 1.25 -9.85 1.30 -8 0.05 0.70 -0.25 3.15 -0.60 5.50 -0.40 2.35 -0.70 3.45 -0.70 2.50z"/>
  <path d="M183.25 524.45 c-0.45 -0.85 -0.75 -1.65 -0.65 -1.75 0.15 -0.10 0.60 0.60 1.05 1.55 1.05 2.15 0.65 2.35 -0.40 0.20z"/>
  <path d="M237 523.60 c0.35 -0.65 0.45 -2.35 0.30 -4 -0.25 -2.50 -0.20 -2.60 0.20 -0.85 0.65 2.90 0.60 3.95 -0.30 5.05 -0.70 0.90 -0.75 0.90 -0.20 -0.20z"/>
  <path d="M181.70 520.25 c-0.25 -1.35 -0.10 -2.05 0.55 -2.75 0.50 -0.55 1.15 -1 1.45 -1 0.30 0 0 0.45 -0.65 0.95 -1 0.75 -1.15 1.20 -0.85 2.75 0.20 1 0.25 1.80 0.10 1.80 -0.15 0 -0.40 -0.80 -0.60 -1.75z"/>
  <path d="M172.55 521.25 c0 -0.25 0.30 -1.60 0.65 -3 0.40 -1.35 0.70 -2.05 0.70 -1.50 0 1.05 -1.25 5.35 -1.35 4.50z"/>
  <path d="M253 519.25 c0 -0.40 3.05 -1.80 3.50 -1.65 0.25 0.10 -0.45 0.55 -1.50 1 -1.10 0.45 -2 0.75 -2 0.65z"/>
  <path d="M258.50 516.95 c1.85 -0.75 4 -3 4 -4.15 0 -0.70 -0.75 -1.50 -2.25 -2.40 -1.70 -1.05 -2.25 -1.65 -2.20 -2.50 l0.10 -1.15 0.20 1.15 c0.15 0.65 0.80 1.35 1.55 1.65 4.20 1.60 4.10 5.15 -0.25 7.40 -0.60 0.30 -1.40 0.55 -1.75 0.50 -0.35 0 -0.10 -0.25 0.60 -0.50z"/>
  <path d="M221.90 511 c-0.15 -0.80 -0.05 -1.50 0.20 -1.50 0.20 0 0.40 0.70 0.40 1.50 0 0.85 -0.10 1.50 -0.20 1.50 -0.10 0 -0.30 -0.65 -0.40 -1.50z"/>
  <path d="M113.75 508.75 c-0.20 -1.85 -0.25 -3.45 -0.10 -3.55 0.10 -0.15 0.40 1.25 0.60 3.05 0.20 1.85 0.25 3.45 0.10 3.55 -0.10 0.15 -0.40 -1.25 -0.60 -3.05z"/>
  <path d="M216.10 509.90 c1 -1.05 2.15 -1.90 2.50 -1.90 0.35 0 0.05 0.35 -0.60 0.85 -0.70 0.45 -1.80 1.30 -2.50 1.85 -0.70 0.60 -0.45 0.20 0.60 -0.80z"/>
  <path d="M365.10 510.75 c0 -0.80 0.25 -3.30 0.65 -5.50 0.35 -2.20 0.65 -3.30 0.65 -2.50 0 0.85 -0.25 3.30 -0.65 5.50 -0.35 2.20 -0.65 3.35 -0.65 2.50z"/>
  <path d="M222 506.45 c0 -0.30 -0.45 -0.45 -1 -0.30 -0.55 0.15 -0.90 0.05 -0.70 -0.20 0.45 -0.75 2.20 -0.50 2.20 0.30 0 0.40 -0.10 0.75 -0.25 0.75 -0.15 0 -0.25 -0.25 -0.25 -0.55z"/>
  <path d="M327.75 506.05 c-0.20 -0.60 -1.60 -2.45 -3.15 -4.15 -2.10 -2.30 -2.40 -2.75 -1.05 -1.70 1.90 1.50 5.30 6.10 4.85 6.60 -0.20 0.15 -0.45 -0.20 -0.65 -0.75z"/>
  <path d="M469.25 505.05 c-16.30 -2.65 -30.65 -13.30 -38.15 -28.30 -3 -6.05 -4.15 -9.60 -5.40 -17.25 -3.20 -19.70 5.20 -40.95 20.85 -52.55 3.40 -2.50 10.55 -6.45 12.95 -7.15 8.10 -2.35 10.95 -2.80 17.95 -2.80 3.70 0 8.10 0.25 9.75 0.55 12.80 2.45 24.75 10.20 31.50 20.45 1.30 1.95 2.20 3.75 2.05 3.95 -0.15 0.25 -1.20 1 -2.40 1.70 -1.15 0.65 -4.65 2.70 -7.70 4.50 -4.30 2.50 -5.75 3.15 -6.15 2.70 -0.30 -0.35 -1.10 -1.40 -1.80 -2.35 -6.80 -9.60 -18.20 -14.75 -28.80 -13 -4 0.65 -5.30 1.05 -9.70 3.05 -5.65 2.55 -11.25 8.45 -14.55 15.25 -2.70 5.60 -3.65 10.05 -3.65 17.05 0 13.35 5.15 24.15 14.80 30.95 9.90 7 25.60 6.80 34.95 -0.45 2.70 -2.10 6.10 -5.65 7.60 -7.95 0.70 -1.05 1.50 -1.90 1.75 -1.90 0.80 0 16.90 9.15 16.90 9.60 0 0.85 -5.35 7.60 -7.85 9.90 -3.80 3.60 -8.10 6.70 -11.90 8.65 -8.85 4.45 -12.55 5.40 -22.75 5.60 -4.25 0.10 -8.90 0 -10.25 -0.20z"/>
  <path d="M560 505.15 c-3.95 -0.35 -10 -2.55 -14.35 -5.20 -7.75 -4.65 -12.95 -11.90 -15.70 -21.70 -1.35 -4.90 -1.60 -15.70 -0.50 -20.50 1.85 -8.05 5 -14.45 9.55 -19.45 3.80 -4.15 10.15 -8.20 15.25 -9.65 4.80 -1.35 5.95 -1.55 11.15 -1.60 13.80 -0.25 25.10 6.10 31.60 17.65 0.60 1.10 1.75 4.05 2.60 6.50 1.35 4.05 1.55 5.45 1.75 12.20 l0.30 7.60 -26.85 0 c-23.10 0 -26.80 0.10 -26.80 0.75 0 1.80 1.20 6 2.50 8.65 1.80 3.70 4.95 6.85 8.50 8.50 2.40 1.10 3.45 1.25 8 1.25 4.55 0 5.60 -0.15 8.10 -1.25 3.30 -1.55 6.80 -4.60 8.75 -7.70 0.80 -1.20 1.55 -2.20 1.80 -2.20 0.60 0 13.85 9.10 13.85 9.55 0 0.20 -1.10 1.75 -2.45 3.35 -8.65 10.40 -21.05 14.85 -37.05 13.25z m23.75 -47.50 c-0.20 -0.50 -0.55 -1.65 -0.75 -2.55 -0.70 -2.85 -2.95 -6.85 -4.80 -8.55 -2.55 -2.35 -6.80 -4.15 -10.45 -4.45 -9.10 -0.70 -16.30 4.30 -19.20 13.35 -1.05 3.25 -2.25 3.05 17.50 3.05 17 0 18.05 -0.05 17.70 -0.85z"/>
  <path d="M836.25 505.20 c-11.60 -1.60 -18.65 -6.95 -20.80 -15.85 -1.15 -4.85 0.15 -12.85 2.70 -16.55 3.70 -5.25 11 -9.75 19.35 -11.85 6.20 -1.60 14.20 -2.85 20.40 -3.25 l5.10 -0.35 0 -2.80 c0 -3.10 -1.25 -6.35 -3.15 -8.25 -3.15 -3.15 -9.45 -4.80 -14.45 -3.80 -6.30 1.20 -9.35 3.75 -13.65 11.35 0 0.05 -0.85 -0.10 -1.80 -0.35 -0.90 -0.25 -4.35 -0.95 -7.55 -1.55 -3.25 -0.65 -5.90 -1.30 -5.90 -1.50 0 -1.55 2.40 -7.40 4 -9.85 5.85 -8.75 16.40 -13.60 29.60 -13.60 6.85 0 11.65 1 16.75 3.55 6.65 3.30 10.90 8.10 13.35 14.90 0.90 2.55 1 4.55 1.30 21.80 0.15 10.45 0.50 19.40 0.70 19.90 0.55 1.20 2.90 2.35 4.80 2.35 1.40 0 1.50 0.10 1.50 1.90 0 1.10 0.15 4.30 0.30 7.20 l0.35 5.25 -2.45 0.70 c-1.45 0.40 -4.50 0.70 -7.45 0.65 -4.15 0 -5.40 -0.20 -7.35 -1.15 -3.55 -1.70 -5.60 -4.40 -7.65 -9.80 -0.35 -1 -0.35 -1 -0.90 -0.05 -2.35 3.95 -7.15 7.55 -12.60 9.55 -3.35 1.20 -10.80 1.95 -14.50 1.45z m15.75 -15.60 c3.25 -1.05 7.20 -3.80 8.60 -6 2.05 -3.25 2.40 -4.50 2.40 -9.40 l0 -4.80 -3.85 0.35 c-5.15 0.40 -9.60 1.15 -13.80 2.35 -5.85 1.65 -8.85 3.80 -10.15 7.20 -1.25 3.30 -0.65 6.20 1.80 8.40 1.70 1.55 2.95 2.10 6.75 2.95 1.50 0.35 5.70 -0.20 8.25 -1.05z"/>
  <path d="M726.50 504.45 c-9.85 -1.10 -17.10 -6.25 -20.15 -14.25 -1.05 -2.85 -1.10 -3.65 -1.25 -24.80 l-0.15 -21.85 -5.60 0.10 -5.60 0.05 -0.15 -7.85 -0.15 -7.85 5.80 0 5.75 0 0 -10.25 0 -10.25 9 0 9 0 0 10.25 0 10.25 10.90 0.10 10.85 0.15 0 7.70 0 7.70 -10.85 -0.10 -10.90 -0.10 0 16.85 c0 22.05 0.60 25.35 5 27.55 2.15 1.10 10.60 1.20 13.75 0.20 4.30 -1.35 4.05 -1.45 4.40 1.80 0.40 3.65 1.15 8.85 1.60 11.20 l0.35 1.75 -2.70 0.60 c-6.85 1.55 -12.05 1.80 -18.90 1.05z"/>
  <path d="M252.55 504.30 c0.10 -0.10 1.35 -0.30 2.70 -0.45 1.60 -0.20 2.15 -0.15 1.50 0.15 -0.95 0.40 -4.65 0.70 -4.20 0.30z"/>
  <path d="M262 503.75 c0.70 -0.85 3.95 -2 4.35 -1.55 0.20 0.15 0 0.30 -0.40 0.30 -0.40 0 -1.60 0.45 -2.60 0.95 -1.20 0.60 -1.70 0.70 -1.35 0.30z"/>
  <path d="M614.50 466 l0 -38 9.05 0 9 0 -0.10 5.50 c-0.05 5.50 0.20 6.60 1.25 4.75 1.15 -2.10 6.40 -6.60 9.40 -8.10 4.40 -2.20 8.55 -3.15 13.70 -3.15 11.95 0.05 20.20 5.35 24.10 15.50 2 5.25 2.15 7.40 2.25 34.90 l0.10 26.60 -9.35 0 -9.35 0 -0.15 -24.35 c-0.15 -24.30 -0.20 -24.40 -1.35 -27.35 -1.25 -3.20 -1.60 -3.65 -3.55 -5.65 -2.40 -2.40 -3.90 -2.90 -9 -2.85 -4 0.05 -5.20 0.25 -7.60 1.30 -3.45 1.60 -6.10 4.25 -7.85 7.90 l-1.30 2.75 -0.15 24.15 -0.15 24.10 -9.50 0 -9.45 0 0 -38z"/>
  <path d="M760 466 l0 -38 9 0 9 0 0 6.50 c0 3.60 0.15 6.50 0.40 6.50 0.20 0 0.80 -0.95 1.35 -2.10 1.60 -3.35 6.20 -7.70 9.85 -9.35 4.10 -1.80 9.50 -2.80 13.50 -2.40 5.05 0.45 4.65 -0.30 4.55 9.50 l-0.15 8.60 -6.85 -0.20 c-7.70 -0.20 -10.10 0.25 -13.45 2.55 -3.85 2.55 -5.95 5.90 -7.50 11.70 -0.55 2.15 -0.70 7.10 -0.70 23.70 l0 21 -9.50 0 -9.50 0 0 -38z"/>
  <path d="M903 449.25 l0 -54.75 9.50 0 9.50 0 0 54.75 0 54.75 -9.50 0 -9.50 0 0 -54.75z"/>
  <path d="M258.05 503.30 c0.50 -0.50 3.95 -2.25 3.95 -2.05 0 0.35 -3.15 2.25 -3.70 2.25 -0.25 0 -0.35 -0.10 -0.25 -0.20z"/>
  <path d="M205.80 499.60 c0.15 -1.75 0.45 -3.65 0.70 -4.25 0.50 -1.20 0.40 -0.15 -0.50 4.90 -0.45 2.40 -0.45 2.40 -0.20 -0.65z"/>
  <path d="M237.55 500.25 c-1.60 -1.70 -2.05 -2.60 -2 -3.85 0.05 -1.65 0.05 -1.65 0.50 0.35 0.30 1.20 1.25 2.75 2.30 3.85 1.05 1.05 1.70 1.90 1.55 1.90 -0.15 0 -1.20 -1 -2.35 -2.25z"/>
  <path d="M249.10 501.25 c-0.30 -0.70 -0.40 -1.25 -0.15 -1.25 0.40 0 1.15 2.05 0.85 2.35 -0.05 0.10 -0.40 -0.40 -0.70 -1.10z"/>
  <path d="M271 500.65 c0.40 -0.15 1.15 -0.60 1.65 -1.05 0.50 -0.45 0.85 -0.55 0.85 -0.20 0 0.65 -1.60 1.60 -2.60 1.55 -0.45 0 -0.40 -0.10 0.10 -0.30z"/>
  <path d="M366.85 497.45 c0.15 -1.85 0.45 -4.10 0.70 -5 0.50 -2.15 0 3.35 -0.60 6.30 -0.30 1.50 -0.30 1.15 -0.10 -1.30z"/>
  <path d="M111.80 493.95 c-0.20 -1.65 -0.25 -3.15 -0.15 -3.30 0.15 -0.10 0.40 1.15 0.60 2.85 0.20 1.70 0.25 3.15 0.10 3.30 -0.10 0.15 -0.35 -1.15 -0.55 -2.85z"/>
  <path d="M312.90 493.55 c-5.60 -3 -6.35 -3.75 -1.15 -1.15 3.45 1.75 6.55 3.65 5.75 3.55 -0.15 -0.05 -2.20 -1.10 -4.60 -2.40z"/>
  <path d="M207 493.90 c-0.10 -1.95 3.05 -4.60 8.25 -6.90 1.35 -0.65 3.35 -2.05 4.45 -3.20 1.45 -1.50 1.65 -1.65 0.90 -0.55 -1.50 2.20 -2.45 2.95 -6.60 5 -4.60 2.20 -5.15 2.60 -6.15 4.50 -0.45 0.85 -0.80 1.35 -0.85 1.15z"/>
  <path d="M236.55 492.25 c0 -1.15 0.50 -1.90 2.95 -4 1.50 -1.30 1.45 -1.20 -0.35 0.75 -1.10 1.25 -2.15 2.70 -2.30 3.25 l-0.25 1 -0.05 -1z"/>
  <path d="M368.10 488.75 c-0.05 -0.80 0.15 -2.40 0.35 -3.50 0.55 -2.65 0.60 -0.25 0.10 2.75 -0.30 1.70 -0.45 1.85 -0.45 0.75z"/>
  <path d="M302.50 488.75 c-0.70 -0.40 -1 -0.70 -0.75 -0.70 0.30 0 1.05 0.30 1.75 0.70 0.70 0.40 1.05 0.70 0.75 0.70 -0.25 0 -1.05 -0.30 -1.75 -0.70z"/>
  <path d="M249.05 487.75 c0 -0.25 0.40 -1.30 0.95 -2.25 0.55 -0.95 0.95 -1.50 0.95 -1.25 0 0.30 -0.40 1.30 -0.95 2.25 -0.55 0.95 -0.95 1.55 -0.95 1.25z"/>
  <path d="M243.50 482.05 c-0.60 -1.20 -0.65 -3.40 -0.05 -3.75 0.25 -0.20 0.35 0.15 0.20 0.70 -0.15 0.55 0 1.65 0.25 2.50 0.60 1.70 0.40 2 -0.40 0.55z"/>
  <path d="M278.70 478.60 c-7.20 -4.70 -14.35 -13.30 -13.45 -16.15 0.30 -0.90 0.60 -1 2.15 -0.70 1.05 0.20 2.10 0.55 2.35 0.85 0.35 0.30 -0.10 0.40 -1.25 0.20 -2.05 -0.35 -3.35 0.25 -2.70 1.25 0.45 0.70 0.50 0.95 0.65 2 0.10 1.10 9.90 10.60 12.65 12.30 2.60 1.60 3.30 2.15 2.75 2.15 -0.10 0 -1.50 -0.85 -3.15 -1.90z"/>
  <path d="M169.35 479.10 c0.15 -0.60 0.45 -1.25 0.70 -1.40 0.70 -0.40 0.55 0.50 -0.30 1.60 -0.65 0.90 -0.70 0.90 -0.40 -0.20z"/>
  <path d="M153.45 476.80 c0.60 -0.70 0.60 -0.90 -0.25 -1.50 -1.30 -1 -0.65 -1.45 0.70 -0.50 1.40 0.95 1.40 1.50 0 2.25 -1.05 0.55 -1.10 0.55 -0.45 -0.25z"/>
  <path d="M251.10 476.70 c-0.65 -0.45 -1.50 -0.65 -1.90 -0.50 -0.45 0.15 -0.60 0.05 -0.45 -0.20 0.45 -0.75 1.35 -0.60 2.75 0.50 1.50 1.15 1.20 1.35 -0.40 0.20z"/>
  <path d="M244 476.50 c0 -0.75 1.05 -1.15 1.60 -0.60 0.30 0.30 0.10 0.55 -0.55 0.75 -0.60 0.15 -1.05 0.05 -1.05 -0.15z"/>
  <path d="M169.30 475.40 c-1.20 -1.65 -0.95 -2.25 0.25 -0.70 0.60 0.75 0.95 1.45 0.80 1.60 -0.15 0.15 -0.60 -0.25 -1.05 -0.90z"/>
  <path d="M154.25 470 c0.55 -0.25 1.35 -0.45 1.75 -0.45 0.45 0 0.40 0.20 -0.25 0.45 -0.55 0.25 -1.35 0.45 -1.75 0.45 -0.45 0 -0.40 -0.20 0.25 -0.45z"/>
  <path d="M229.55 468.25 c0 -0.25 0.30 -1.05 0.70 -1.75 0.40 -0.70 0.70 -1 0.70 -0.75 0 0.30 -0.30 1.05 -0.70 1.75 -0.40 0.70 -0.70 1.05 -0.70 0.75z"/>
  <path d="M102.25 466.30 c-1.40 -0.60 -3.25 -1.95 -4.15 -3 -1.50 -1.75 -4.40 -6.80 -3.85 -6.80 0.10 0 0.80 1.10 1.45 2.40 1.75 3.45 4.75 6.30 7.85 7.50 1.50 0.60 2.35 1.05 1.95 1.05 -0.40 0.05 -1.90 -0.50 -3.25 -1.15z"/>
  <path d="M376.75 466.30 c1.55 -0.70 3.50 -2.25 5 -3.85 1.90 -2.15 2.15 -2.30 1 -0.70 -0.75 1.10 -1.90 2.40 -2.45 2.90 -1.40 1.20 -4.60 2.85 -5.40 2.80 -0.35 0 0.50 -0.50 1.85 -1.15z"/>
  <path d="M231.50 464.15 c0 -0.80 2.75 -4.25 5.05 -6.40 l2.20 -2 -2.35 2.50 c-1.25 1.40 -2.90 3.40 -3.60 4.45 -0.70 1.05 -1.30 1.70 -1.30 1.45z"/>
  <path d="M92.55 452.45 c-0.60 -1.75 -1.05 -3.40 -1 -3.65 0 -0.30 0.55 1 1.25 2.90 0.65 1.90 1.10 3.55 1 3.65 -0.10 0.10 -0.65 -1.20 -1.25 -2.90z"/>
  <path d="M269.65 450.15 c0.45 -0.10 1.25 -0.10 1.75 0 0.45 0.15 0.05 0.25 -0.90 0.25 -0.95 0 -1.35 -0.10 -0.85 -0.25z"/>
  <path d="M90.05 444.30 c-0.30 -1.25 -0.55 -2.65 -0.50 -3.15 0 -0.50 0.35 0.45 0.75 2.05 0.40 1.65 0.65 3.05 0.50 3.15 -0.10 0.10 -0.45 -0.80 -0.75 -2.05z"/>
  <path d="M89.50 435.70 c0 -0.50 0.25 -1.30 0.50 -1.70 0.40 -0.55 0.45 -0.35 0.20 0.75 -0.40 1.85 -0.70 2.25 -0.70 0.95z"/>
  <path d="M94.70 429.30 c0.70 -0.55 1.95 -0.80 4.25 -0.70 l3.30 0.05 -3.50 0.30 c-1.90 0.15 -3.85 0.50 -4.25 0.70 -0.40 0.25 -0.30 0.05 0.20 -0.35z"/>
  <path d="M277.30 393.10 c-1.50 -1.70 -1.85 -2.25 -0.85 -1.35 1.50 1.35 3.85 4.25 3.45 4.25 -0.10 0 -1.25 -1.30 -2.60 -2.90z"/>
  <path d="M201.50 393.05 c0.55 -0.80 1.95 -2.20 3.15 -3.10 1.85 -1.40 1.70 -1.25 -0.90 1.45 -1.65 1.70 -3.05 3.10 -3.15 3.10 -0.10 0 0.30 -0.65 0.90 -1.45z"/>
  <path d="M180.75 386.25 c2.30 -4.15 9.70 -12.75 10.90 -12.75 0.25 0 -1.15 1.65 -3.10 3.65 -2 2 -4.75 5.35 -6.15 7.40 -3.05 4.50 -3.55 5 -1.65 1.70z"/>
  <path d="M297.05 384.80 c-1.10 -1.80 -3.60 -4.90 -5.55 -6.90 -4.30 -4.50 -4.60 -5.20 -0.45 -1.15 3.05 3 5.30 5.90 7.40 9.40 1.90 3.15 0.75 2.05 -1.40 -1.35z"/>
  <path d="M194.25 371.50 c0.55 -0.90 4.80 -3.55 5.35 -3.40 0.30 0.10 -0.85 1.05 -2.55 2.05 -1.70 1 -2.95 1.60 -2.80 1.35z"/>
  <path d="M274.50 366.20 c-2.05 -0.90 -3.45 -1.70 -3.10 -1.70 0.80 0 7.10 2.85 7.10 3.20 0 0.15 -0.05 0.30 -0.10 0.25 -0.10 0 -1.85 -0.80 -3.90 -1.75z"/>
  <path d="M201.30 367.05 c-0.15 -0.25 0.20 -0.60 0.85 -0.80 1.50 -0.50 1.25 -0.40 4.50 -1.65 1.60 -0.60 3.25 -1.10 3.75 -1.05 0.65 0 0.70 0.10 0.10 0.30 -0.40 0.10 -1.10 0.35 -1.50 0.50 -0.40 0.20 -0.90 0.35 -1.10 0.40 -0.25 0.10 -0.50 0.20 -0.65 0.25 -0.15 0.05 -0.40 0.15 -0.60 0.20 -0.25 0.05 -1.35 0.60 -2.50 1.20 -2.40 1.25 -2.50 1.25 -2.85 0.65z"/>
  <path d="M268.25 364.15 c-0.55 -0.15 -1.20 -0.45 -1.45 -0.70 -0.25 -0.20 0.40 -0.15 1.50 0.10 2.90 0.80 2.85 1.30 -0.05 0.60z"/>
  <path d="M217.65 362.15 c0.45 -0.10 1.25 -0.10 1.75 0 0.45 0.15 0.05 0.25 -0.90 0.25 -0.95 0 -1.35 -0.10 -0.85 -0.25z"/>
  <path d="M230.90 361.65 c3.90 -0.10 10.30 -0.10 14.25 0 3.90 0.05 0.70 0.15 -7.15 0.15 -7.85 0 -11.05 -0.10 -7.10 -0.15z"/>
 </g>
</svg>